<?xml version="1.0" encoding="UTF-8" standalone="no"?>
<svg xmlns="http://www.w3.org/2000/svg" width="1400" height="900" viewBox="0 0 1400 900">
  <style>
    .node { fill: #ffffff; stroke: #333; stroke-width:1.5; rx:6; }
    .title { font: bold 14px sans-serif; fill: #1f2937 }
    .small { font: 12px sans-serif; fill: #374151 }
    .arrow { stroke: #6b7280; stroke-width:1.2; fill:none; marker-end: url(#arrowhead); }
  </style>
  <defs>
    <marker id="arrowhead" markerWidth="10" markerHeight="7" refX="10" refY="3.5" orient="auto">
      <polygon points="0 0, 10 3.5, 0 7" fill="#6b7280" />
    </marker>
  </defs>

  <!-- Managers column -->
  <rect class="node" x="40" y="50" width="260" height="80"/>
  <text x="70" y="80" class="title">GameManager</text>
  <text x="70" y="100" class="small">Classes/Manager/GameManager.cpp</text>

  <rect class="node" x="40" y="160" width="260" height="80"/>
  <text x="70" y="190" class="title">ResourceManager</text>
  <text x="70" y="210" class="small">Classes/Core/ResourceManager.*</text>

  <rect class="node" x="40" y="270" width="260" height="80"/>
  <text x="70" y="300" class="title">ConfigManager</text>
  <text x="70" y="320" class="small">Classes/Manager/ConfigManager.*</text>

  <rect class="node" x="40" y="380" width="260" height="80"/>
  <text x="70" y="410" class="title">SaveManager</text>
  <text x="70" y="430" class="small">Classes/Manager/SaveManager.*</text>

  <!-- Scenes column -->
  <rect class="node" x="520" y="50" width="260" height="80"/>
  <text x="550" y="80" class="title">MainMenuScene</text>
  <text x="550" y="100" class="small">Classes/Scenes/MainMenuScene.cpp</text>

  <rect class="node" x="520" y="160" width="260" height="80"/>
  <text x="550" y="190" class="title">BaseScene</text>
  <text x="550" y="210" class="small">Classes/Scenes/BaseScene.cpp</text>

  <rect class="node" x="520" y="270" width="260" height="80"/>
  <text x="550" y="300" class="title">BattleScene</text>
  <text x="550" y="320" class="small">Classes/Scenes/BattleScene.cpp</text>

  <rect class="node" x="520" y="380" width="260" height="80"/>
  <text x="550" y="410" class="title">UILayer / GridMap</text>
  <text x="550" y="430" class="small">Scene UI / Map / Pathfinding</text>

  <!-- Entities column -->
  <rect class="node" x="1030" y="50" width="300" height="60"/>
  <text x="1060" y="80" class="title">Building</text>
  <text x="1060" y="95" class="small">Classes/Buildings/Building.cpp</text>

  <rect class="node" x="1030" y="140" width="300" height="60"/>
  <text x="1060" y="170" class="title">DefenseBuilding</text>
  <text x="1060" y="185" class="small">Classes/Buildings/DefenseBuilding.cpp</text>

  <rect class="node" x="1030" y="230" width="300" height="60"/>
  <text x="1060" y="260" class="title">ProductionBuilding</text>
  <text x="1060" y="275" class="small">Classes/Buildings/ProductionBuilding.cpp</text>

  <rect class="node" x="1030" y="320" width="300" height="60"/>
  <text x="1060" y="350" class="title">StorageBuilding</text>
  <text x="1060" y="365" class="small">Classes/Buildings/StorageBuilding.cpp</text>

  <rect class="node" x="1030" y="410" width="300" height="60"/>
  <text x="1060" y="440" class="title">Barracks</text>
  <text x="1060" y="455" class="small">Classes/Buildings/Barracks.cpp</text>

  <rect class="node" x="1030" y="500" width="300" height="60"/>
  <text x="1060" y="530" class="title">Unit</text>
  <text x="1060" y="545" class="small">Classes/Units/Unit.cpp</text>

  <rect class="node" x="1030" y="590" width="300" height="60"/>
  <text x="1060" y="620" class="title">Projectile</text>
  <text x="1060" y="635" class="small">Classes/Projectiles/Projectile.cpp</text>

  <!-- arrows -->
  <path class="arrow" d="M300 80 L520 80" />
  <path class="arrow" d="M300 190 L520 190" />
  <path class="arrow" d="M300 300 L520 300" />
  <path class="arrow" d="M300 410 L520 410" />

  <path class="arrow" d="M780 120 L1030 80" />
  <path class="arrow" d="M780 225 L1030 170" />
  <path class="arrow" d="M780 330 L1030 260" />
  <path class="arrow" d="M780 440 L1030 365" />
  <path class="arrow" d="M780 480 L1030 455" />

  <path class="arrow" d="M780 300 L1030 530" />
  <path class="arrow" d="M780 360 L1030 620" />

  <path class="arrow" d="M800 320 L1030 320" />
  <path class="arrow" d="M1200 290 L1110 300" />

  <!-- cross links (ResourceManager/Config use) -->
  <path class="arrow" d="M340 208 L1005 254" />
  <path class="arrow" d="M340 298 L1005 430" />
  <path class="arrow" d="M340 378 L1200 520" />
  <path class="arrow" d="M340 398 L1200 600" />

  <!-- GameManager relationships -->
  <path class="arrow" d="M200 90 L760 140" />
  <path class="arrow" d="M200 360 L760 310" />
</svg>